<svg width="35" height="35" viewBox="0 0 30 30" fill="none" xmlns="http://www.w3.org/2000/svg">
<path d="M26.25 10C27.6308 10 28.75 11.1193 28.75 12.5V17.5C28.75 18.8808 27.6308 20 26.25 20H24.9226C24.3075 24.9329 20.0995 28.75 15 28.75V26.25C19.1421 26.25 22.5 22.8921 22.5 18.75V11.25C22.5 7.10786 19.1421 3.75 15 3.75C10.8579 3.75 7.5 7.10786 7.5 11.25V20H3.75C2.36929 20 1.25 18.8808 1.25 17.5V12.5C1.25 11.1193 2.36929 10 3.75 10H5.07736C5.69249 5.06711 9.90048 1.25 15 1.25C20.0995 1.25 24.3075 5.06711 24.9226 10H26.25ZM9.6993 19.7311L11.0245 17.6109C12.177 18.3328 13.5398 18.75 15 18.75C16.4602 18.75 17.823 18.3328 18.9755 17.6109L20.3008 19.7311C18.764 20.6936 16.947 21.25 15 21.25C13.053 21.25 11.236 20.6936 9.6993 19.7311Z" fill="white"/>
</svg>
